<svg xmlns="http://www.w3.org/2000/svg" id="logosandtypes_com" viewBox="0 0 150 150"><defs><style>.cls-1{fill:none;}.cls-2{fill:#46643c;}</style></defs><g id="Layer_2"><path id="Layer_3" class="cls-1" d="M0,0H150V150H0V0Z"/></g><path class="cls-2" d="M80.55,7.93c-12.38,11.78-21.44,25.88-26.57,42.28-7.12-9.82-16.01-17.09-27.04-22.08C39.08,15.54,56.13,7.7,75,7.7c1.87,0,3.72,.08,5.55,.23Z"/><path class="cls-2" d="M49.23,136.01c-24.06-10.08-40.96-33.85-40.96-61.57,0-11.76,3.04-22.81,8.39-32.41,16.63,4.89,29.29,20.64,32.16,37.64,.45,2.6,.69,5.24,.69,7.89-.28,16.13,.51,32.42-.28,48.45Z"/><path class="cls-2" d="M116.72,22.35c-18.73,10.9-32.68,30.36-33.61,52.61-.54,21.91,.27,43.88-.31,65.75-2.56,.3-5.16,.45-7.8,.45-2.92,0-5.8-.19-8.62-.55-.63-21.41-.01-43.03-.19-64.51,.01-5.03,.78-9.98,1.87-14.88,4.35-19.4,16.17-37.31,32.76-48.34,5.75,2.42,11.1,5.62,15.9,9.47Z"/><path class="cls-2" d="M141.73,74.43c0,3.74-.31,7.41-.9,10.99v.03l-.02,.07c-1.19,6.52-3.28,12.88-6.13,18.79,0,.01-.01,.03-.02,.04-7.32,14.57-19.83,26.09-35.09,32.14-.46-6.97,.02-14.1-.17-21.12-.01-3.19,.66-6.23,1.96-9.12,4.13-9.43,12.8-15.23,23.1-15.46,.27-.79,.37-14.28,.1-15.95-9.21,.09-17.48,2.95-25.03,8.58-1.83-20.7,10.11-40.56,29.43-48.27,8.04,11.02,12.78,24.6,12.78,39.28Z"/></svg>